# xmcd
#
# Track frame offsets:
#	150
#	13590
#	27645
#	36950
#	49653
#	60023
#	72391
#	83439
#	97867
#	111277
#	125342
#	134695
#	147468
#	157866
#	170244
#	181264
#
# Disc length: 2606 seconds
#
# Revision: 1
# Processed by: cddbd v1.5.1PL2 Copyright (c) Steve Scherf et al.
# Submitted via: audiograbber 1.83.01
#
DISCID=d50a2c10
DTITLE=Cline, Patsy - Ps0101
DYEAR=1900
DGENRE=Country
TTITLE0=I Fall To Pieces (Vocals)
TTITLE1=She's Got You (Vocals)
TTITLE2=Walkin' After Midnight (Vocals)
TTITLE3=Sweeet Dreams (Vocals)
TTITLE4=Three Cigarettes In An Ashtray (Vocals)
TTITLE5=Crazy (Vocals)
TTITLE6=Half As Much (Vocals)
TTITLE7=Imagine That (Vocals)
TTITLE8=I Fall To Pieces
TTITLE9=She's Got You
TTITLE10=Walkin' After Midnight
TTITLE11=Sweeet Dreams
TTITLE12=Three Cigarettes In An Ashtray
TTITLE13=Crazy
TTITLE14=Half As Much
TTITLE15=Imagine That
EXTD=
EXTT0=
EXTT1=
EXTT2=
EXTT3=
EXTT4=
EXTT5=
EXTT6=
EXTT7=
EXTT8=
EXTT9=
EXTT10=
EXTT11=
EXTT12=
EXTT13=
EXTT14=
EXTT15=
PLAYORDER=
